<?xml version="1.0" standalone="no"?>
<!DOCTYPE svg PUBLIC "-//W3C//DTD SVG 20010904//EN"
 "http://www.w3.org/TR/2001/REC-SVG-20010904/DTD/svg10.dtd">
<svg version="1.0" xmlns="http://www.w3.org/2000/svg"
 width="398.000000pt" height="398.000000pt" viewBox="0 0 398.000000 398.000000"
 preserveAspectRatio="xMidYMid meet">
<metadata>
Created by potrace 1.16, written by Peter Selinger 2001-2019
</metadata>
<g transform="translate(0.000000,398.000000) scale(0.100000,-0.100000)"
fill="#000000" stroke="none">
<path d="M2087 3210 c-57 -17 -80 -57 -27 -47 33 7 60 -12 60 -44 0 -23 0 -23
-80 2 -37 11 -108 23 -165 26 -108 6 -177 -7 -259 -49 -47 -24 -148 -118 -177
-164 l-20 -33 -69 6 c-143 12 -235 -57 -300 -222 -32 -83 -66 -150 -85 -169
-36 -36 -118 1 -95 44 5 10 10 23 10 29 0 19 -38 12 -67 -13 -25 -22 -28 -30
-28 -89 0 -48 5 -70 18 -84 16 -19 16 -21 -4 -39 -37 -33 -69 -113 -69 -174 0
-56 0 -56 -37 -69 -140 -49 -182 -148 -122 -288 10 -24 19 -55 19 -68 0 -32
-33 -49 -76 -40 -30 5 -34 3 -34 -16 0 -11 15 -36 32 -53 l33 -33 -31 -40
c-52 -68 -52 -154 -1 -232 l25 -38 -25 -26 c-39 -38 -36 -95 10 -181 34 -64
35 -68 20 -95 -23 -39 -11 -74 44 -126 43 -42 45 -46 39 -85 -7 -45 3 -51 34
-20 14 14 20 33 20 65 l0 45 29 -32 c27 -30 28 -34 14 -55 -21 -31 -13 -116
13 -144 10 -12 41 -32 67 -46 39 -20 46 -27 37 -38 -9 -11 -7 -15 13 -20 61
-16 93 29 64 90 -9 18 -13 35 -10 38 2 3 23 -9 46 -26 l42 -32 -18 -36 c-37
-75 25 -138 125 -126 l50 6 -42 -22 c-24 -12 -43 -27 -43 -32 -1 -15 174 -99
288 -140 387 -137 824 -137 1213 1 113 40 284 123 289 140 2 6 -13 19 -34 30
-21 10 -40 20 -43 22 -3 2 3 8 13 14 25 14 38 53 27 82 -8 21 -5 26 21 36 26
11 33 10 52 -7 12 -11 34 -27 50 -36 30 -20 34 -38 12 -57 -10 -8 -12 -17 -7
-22 6 -6 26 2 51 19 46 31 62 70 50 121 -7 32 -5 34 43 58 39 20 53 23 58 13
12 -19 1 -38 -31 -55 -35 -17 -38 -34 -6 -34 15 0 49 27 102 80 l79 80 -15 27
c-19 33 -16 48 22 88 55 59 74 146 45 204 -14 26 -13 28 13 44 66 39 76 128
26 227 -14 27 -25 51 -25 53 0 2 18 17 40 32 43 30 70 28 70 -5 0 -24 13 -26
30 -5 17 21 7 101 -16 127 -11 11 -39 29 -64 40 -24 11 -47 24 -51 30 -4 5 0
31 7 56 29 94 7 184 -60 246 -24 23 -39 51 -55 104 -18 59 -31 83 -71 124
l-49 51 31 38 c43 53 49 125 16 189 -15 29 -33 48 -50 54 -35 12 -42 5 -27
-28 11 -23 10 -30 -8 -54 -48 -65 -85 -32 -114 99 -31 146 -82 214 -195 260
l-51 21 13 37 c16 44 17 81 3 101 -8 11 -12 12 -16 2 -16 -40 -63 -53 -117
-32 -14 5 -53 35 -87 66 -69 63 -126 92 -198 101 -46 5 -49 8 -60 44 -17 57
-54 95 -105 108 -51 12 -51 12 -89 1z m86 -796 c30 -5 39 -12 43 -33 15 -60
42 -89 114 -116 39 -15 70 -28 70 -30 0 -2 -11 -21 -25 -41 -37 -54 -33 -80
20 -130 25 -24 46 -49 47 -56 2 -8 -23 -12 -88 -13 -120 -3 -228 -29 -254 -62
-23 -30 -26 -51 -7 -59 7 -2 52 4 100 16 109 25 213 34 252 21 24 -7 11 -9
-66 -10 -99 -1 -228 -27 -271 -55 -17 -10 -53 -14 -133 -14 -95 0 -116 3 -155
23 l-45 23 35 -1 c42 -2 50 18 20 56 -16 20 -38 30 -98 43 -161 36 -274 19
-358 -56 -19 -16 -38 -30 -43 -30 -17 0 -20 114 -5 184 20 97 54 166 111 227
77 82 120 99 260 100 65 1 143 4 173 9 70 9 253 12 303 4z m-584 -594 c187
-17 251 -47 251 -120 0 -49 -8 -50 -37 -5 l-22 35 22 0 c22 1 22 1 -3 21 -23
20 -35 21 -165 17 -127 -4 -145 -6 -191 -30 -56 -29 -114 -89 -114 -117 0 -39
94 -89 183 -98 75 -7 160 13 247 57 33 17 60 26 60 22 0 -23 -49 -79 -84 -96
-50 -25 -199 -33 -281 -16 -48 10 -67 20 -96 50 -67 71 -86 217 -33 261 32 26
114 32 263 19z m988 -6 c71 -11 92 -92 53 -198 -41 -108 -118 -143 -298 -134
-113 5 -152 21 -190 78 -12 18 -21 35 -19 37 2 2 33 -10 69 -27 132 -62 253
-64 349 -7 34 20 55 40 57 54 4 29 -45 83 -110 118 -49 27 -62 29 -190 33
-120 4 -141 2 -165 -13 l-28 -18 19 22 c46 51 285 80 453 55z m-829 -110 c12
-8 29 -28 37 -44 14 -28 14 -30 -9 -45 -44 -29 -141 -58 -214 -63 -79 -5 -145
13 -177 48 -15 17 -16 22 -4 36 17 22 89 74 101 74 4 0 8 -16 8 -36 0 -26 8
-43 29 -65 64 -64 171 -20 171 70 0 46 18 54 58 25z m487 -4 c-9 -30 12 -86
40 -104 28 -18 87 -21 116 -6 24 13 49 61 49 95 l0 25 38 -19 c20 -10 48 -31
61 -45 23 -25 24 -26 6 -46 -32 -35 -98 -53 -177 -48 -73 5 -170 34 -214 63
-21 13 -23 19 -13 38 20 39 52 67 76 67 20 0 23 -4 18 -20z m-227 -3 c17 -20
42 -126 42 -174 0 -43 22 -113 36 -113 4 0 4 27 0 59 l-7 59 43 -43 c62 -62
128 -80 273 -72 60 3 131 12 156 20 l47 14 6 -44 c3 -24 13 -57 22 -75 24 -45
13 -92 -40 -177 -25 -41 -48 -91 -52 -110 -10 -64 -14 -69 -30 -38 -16 30 -34
36 -34 10 0 -12 -9 -7 -30 17 -16 18 -30 37 -30 41 0 5 -20 20 -44 34 -63 37
-138 46 -263 34 -58 -6 -107 -8 -110 -6 -3 3 30 17 73 30 60 19 80 30 86 48
10 27 5 56 -15 83 -13 18 -14 14 -9 -34 l5 -53 -42 7 c-34 5 -48 2 -71 -14
-36 -26 -80 -26 -114 1 -21 16 -34 19 -65 14 -33 -5 -40 -4 -45 13 -4 11 -2
31 4 46 15 39 12 44 -10 17 -22 -26 -27 -84 -7 -98 6 -5 40 -18 75 -28 35 -10
65 -22 68 -27 6 -10 3 -10 -116 2 -160 16 -255 -11 -306 -88 -14 -20 -24 -27
-27 -20 -3 8 -8 4 -14 -10 -9 -24 -9 -24 -34 12 -28 42 -44 47 -35 11 9 -36 2
-31 -33 23 -34 53 -38 86 -16 116 19 26 19 99 0 137 -9 16 -34 57 -55 91 -45
69 -64 125 -54 164 6 25 8 24 36 -27 16 -30 38 -64 50 -77 37 -38 118 -56 258
-57 111 0 130 3 172 23 65 32 109 85 148 178 18 43 38 82 44 86 18 12 53 9 64
-5z m-223 -672 c147 -21 237 -19 435 11 41 6 44 5 30 -9 -21 -22 -174 -47
-290 -47 -113 0 -268 24 -290 45 -18 19 -16 19 115 0z m555 -76 c0 -70 -66
-115 -184 -126 -70 -6 -125 11 -93 29 38 21 12 28 -103 28 -110 0 -145 -8
-104 -24 13 -5 14 -9 4 -21 -28 -34 -182 -8 -238 40 -34 28 -46 73 -31 111 8
23 11 25 22 12 38 -47 433 -71 580 -35 38 9 79 17 93 17 24 0 33 24 17 46 -5
5 2 -1 15 -14 15 -16 22 -35 22 -63z m-582 -567 c4 1 27 -9 52 -22 40 -22 57
-25 155 -25 100 0 115 2 160 27 28 14 61 31 75 36 14 6 44 23 68 37 35 22 42
23 42 10 0 -28 -52 -71 -115 -94 -180 -67 -438 -44 -536 48 -59 57 -47 66 26
21 36 -22 69 -39 73 -38z"/>
</g>
</svg>
